<svg xmlns="http://www.w3.org/2000/svg" xmlns:xlink="http://www.w3.org/1999/xlink" width="1920" zoomAndPan="magnify" viewBox="0 0 1440 809.999993" height="1080" preserveAspectRatio="xMidYMid meet" version="1.0"><defs><g/><clipPath id="94efdda5e4"><path d="M 117.683594 169.71875 L 1322.390625 169.71875 L 1322.390625 640.308594 L 117.683594 640.308594 Z M 117.683594 169.71875 " clip-rule="nonzero"/></clipPath><clipPath id="aa6f789620"><path d="M 454.71875 296.300781 L 598 296.300781 L 598 513.949219 L 454.71875 513.949219 Z M 454.71875 296.300781 " clip-rule="nonzero"/></clipPath></defs><g clip-path="url(#94efdda5e4)"><path fill="#000000" d="M 117.683594 169.71875 L 1322.390625 169.71875 L 1322.390625 640.308594 L 117.683594 640.308594 Z M 117.683594 169.71875 " fill-opacity="1" fill-rule="nonzero"/></g><g clip-path="url(#aa6f789620)"><path fill="#c1ff72" d="M 564.574219 444.246094 C 564.867188 446.84375 564.824219 449.324219 564.621094 451.703125 C 564.308594 454.109375 563.765625 456.386719 563.078125 458.503906 C 562.25 460.59375 561.359375 462.566406 560.210938 464.394531 C 559.542969 465.25 559.066406 466.214844 558.304688 466.992188 C 557.699219 467.875 556.890625 468.59375 556.195312 469.410156 C 555.371094 470.089844 554.667969 470.914062 553.769531 471.507812 C 553.363281 471.851562 552.96875 472.226562 552.5 472.488281 L 551.167969 473.402344 C 549.34375 474.546875 547.371094 475.433594 545.285156 476.253906 C 543.167969 476.945312 540.894531 477.464844 538.496094 477.789062 C 536.125 477.980469 533.644531 478.035156 531.054688 477.738281 C 520.777344 476.457031 508.660156 469.8125 500.695312 454.066406 C 498.71875 458.007812 497.628906 462.519531 497.5 467.214844 C 497.417969 471.890625 498.21875 476.742188 499.921875 481.421875 C 501.691406 486.054688 504.308594 490.496094 507.664062 494.496094 C 511.078125 498.425781 515.230469 501.851562 519.917969 504.589844 C 524.628906 507.289062 529.878906 509.140625 535.335938 510.257812 C 538.070312 510.648438 540.839844 511.125 543.644531 511.085938 L 545.75 511.121094 C 546.453125 511.144531 547.15625 511.113281 547.859375 511.042969 C 549.265625 510.925781 550.675781 510.789062 552.089844 510.636719 C 557.703125 509.792969 563.238281 508.101562 568.390625 505.554688 C 569.671875 504.90625 570.894531 504.15625 572.136719 503.4375 C 573.398438 502.738281 574.558594 501.902344 575.726562 501.0625 C 578.085938 499.421875 580.191406 497.460938 582.300781 495.511719 C 584.234375 493.390625 586.214844 491.304688 587.839844 488.925781 C 588.679688 487.761719 589.515625 486.601562 590.210938 485.339844 C 590.929688 484.097656 591.683594 482.875 592.320312 481.59375 C 594.863281 476.441406 596.550781 470.90625 597.386719 465.292969 C 597.539062 463.882812 597.679688 462.472656 597.792969 461.066406 C 597.941406 459.660156 597.835938 458.25 597.832031 456.855469 C 597.875 454.054688 597.382812 451.28125 597 448.550781 C 595.875 443.101562 594.03125 437.855469 591.328125 433.148438 C 588.585938 428.472656 585.171875 424.320312 581.242188 420.910156 C 577.246094 417.554688 572.808594 414.945312 568.183594 413.171875 C 563.511719 411.46875 558.664062 410.664062 553.992188 410.738281 C 549.304688 410.863281 544.796875 411.945312 540.851562 413.90625 C 556.601562 421.820312 563.289062 433.945312 564.574219 444.246094 Z M 529.351562 296.292969 C 532.050781 300.976562 534.101562 305.964844 535.699219 311.148438 C 537.300781 316.335938 538.335938 321.734375 538.894531 327.25 C 540.003906 338.269531 538.941406 349.785156 535.972656 360.699219 C 533.058594 371.644531 528.367188 381.9375 523.042969 391.25 C 517.722656 400.585938 511.796875 409.019531 506.316406 416.832031 C 500.859375 424.640625 495.820312 431.84375 492.332031 438.628906 C 491.871094 439.484375 491.472656 440.328125 491.082031 441.171875 C 490.648438 442.015625 490.335938 442.839844 489.9375 443.679688 C 489.292969 445.351562 488.601562 447.011719 488.125 448.695312 C 487.070312 452.0625 486.386719 455.53125 486.132812 459.296875 C 485.878906 463.054688 486.027344 467.097656 486.570312 471.359375 C 487.113281 475.621094 488.050781 480.078125 489.222656 484.667969 C 490.367188 489.269531 491.875 493.945312 493.386719 498.785156 C 494.90625 503.628906 496.679688 508.484375 498.183594 513.714844 C 493.414062 511.179688 488.929688 508.238281 484.761719 504.871094 C 480.554688 501.527344 476.558594 497.847656 472.925781 493.675781 C 469.285156 489.515625 465.945312 484.917969 463.109375 479.78125 C 460.273438 474.652344 457.957031 468.949219 456.523438 462.789062 C 456.117188 461.261719 455.878906 459.675781 455.601562 458.097656 C 455.359375 456.515625 455.199219 454.90625 455.039062 453.292969 C 454.847656 450.0625 454.773438 446.773438 455.066406 443.53125 C 455.550781 437.019531 457.035156 430.683594 459.117188 424.878906 C 460.113281 421.9375 461.339844 419.191406 462.5625 416.480469 C 463.820312 413.824219 465.179688 411.238281 466.558594 408.785156 C 467.957031 406.308594 469.414062 403.980469 470.867188 401.679688 C 472.351562 399.410156 473.839844 397.207031 475.332031 395.066406 C 481.347656 386.550781 487.410156 378.988281 493.027344 371.605469 C 498.65625 364.230469 503.839844 357.046875 508.460938 349.480469 C 513.074219 341.917969 517.113281 333.921875 520.492188 325.101562 C 522.191406 320.699219 523.742188 316.101562 525.199219 311.300781 C 526.609375 306.5 527.878906 301.519531 529.351562 296.292969 " fill-opacity="1" fill-rule="nonzero"/></g><g fill="#d32f23" fill-opacity="0.4196"><g transform="translate(712.506489, 475.848858)"><g><path d="M 7.59375 0.1875 C 6.8125 0.1875 6.070312 0.0703125 5.375 -0.15625 C 4.675781 -0.394531 4.046875 -0.726562 3.484375 -1.15625 C 2.921875 -1.582031 2.429688 -2.09375 2.015625 -2.6875 C 1.609375 -3.28125 1.289062 -3.941406 1.0625 -4.671875 C 0.84375 -5.398438 0.734375 -6.175781 0.734375 -7 C 0.734375 -8.03125 0.898438 -8.976562 1.234375 -9.84375 C 1.578125 -10.71875 2.0625 -11.476562 2.6875 -12.125 C 3.320312 -12.78125 4.078125 -13.285156 4.953125 -13.640625 C 5.828125 -14.003906 6.800781 -14.1875 7.875 -14.1875 C 9.34375 -14.1875 10.628906 -13.828125 11.734375 -13.109375 C 12.847656 -12.390625 13.691406 -11.332031 14.265625 -9.9375 L 10.65625 -8.765625 C 10.425781 -9.535156 10.070312 -10.125 9.59375 -10.53125 C 9.125 -10.9375 8.523438 -11.140625 7.796875 -11.140625 C 7.128906 -11.140625 6.550781 -10.96875 6.0625 -10.625 C 5.582031 -10.289062 5.210938 -9.8125 4.953125 -9.1875 C 4.703125 -8.570312 4.578125 -7.84375 4.578125 -7 C 4.578125 -6.164062 4.703125 -5.4375 4.953125 -4.8125 C 5.203125 -4.1875 5.566406 -3.703125 6.046875 -3.359375 C 6.523438 -3.023438 7.109375 -2.859375 7.796875 -2.859375 C 8.285156 -2.859375 8.726562 -2.941406 9.125 -3.109375 C 9.53125 -3.273438 9.847656 -3.5 10.078125 -3.78125 C 10.316406 -4.0625 10.4375 -4.375 10.4375 -4.71875 L 10.4375 -4.96875 L 7.296875 -4.96875 L 7.296875 -7.6875 L 14.015625 -7.6875 L 14.015625 0 L 12.140625 0 L 11.90625 -1.734375 C 11.457031 -1.128906 10.863281 -0.65625 10.125 -0.3125 C 9.394531 0.0195312 8.550781 0.1875 7.59375 0.1875 Z M 7.59375 0.1875 "/></g></g></g><g fill="#d32f23" fill-opacity="0.4196"><g transform="translate(727.611725, 475.848858)"><g><path d="M 1.234375 0 L 1.234375 -14 L 7.40625 -14 C 8.375 -14 9.203125 -13.890625 9.890625 -13.671875 C 10.578125 -13.453125 11.132812 -13.148438 11.5625 -12.765625 C 12 -12.390625 12.316406 -11.945312 12.515625 -11.4375 C 12.722656 -10.9375 12.828125 -10.398438 12.828125 -9.828125 C 12.828125 -9.210938 12.703125 -8.65625 12.453125 -8.15625 C 12.210938 -7.65625 11.851562 -7.234375 11.375 -6.890625 C 10.90625 -6.546875 10.332031 -6.296875 9.65625 -6.140625 C 10.125 -6.023438 10.535156 -5.832031 10.890625 -5.5625 C 11.242188 -5.300781 11.535156 -4.941406 11.765625 -4.484375 C 12.003906 -4.023438 12.171875 -3.441406 12.265625 -2.734375 C 12.316406 -2.316406 12.367188 -1.976562 12.421875 -1.71875 C 12.472656 -1.457031 12.53125 -1.253906 12.59375 -1.109375 C 12.65625 -0.972656 12.726562 -0.875 12.8125 -0.8125 C 12.90625 -0.75 13.019531 -0.707031 13.15625 -0.6875 L 13.15625 0 L 8.921875 0 C 8.828125 -0.21875 8.742188 -0.507812 8.671875 -0.875 C 8.609375 -1.25 8.539062 -1.765625 8.46875 -2.421875 C 8.40625 -2.910156 8.335938 -3.332031 8.265625 -3.6875 C 8.203125 -4.039062 8.101562 -4.332031 7.96875 -4.5625 C 7.84375 -4.789062 7.660156 -4.957031 7.421875 -5.0625 C 7.179688 -5.164062 6.875 -5.21875 6.5 -5.21875 L 4.8125 -5.21875 L 4.8125 0 Z M 4.8125 -7.984375 L 7.15625 -7.984375 C 7.832031 -7.984375 8.304688 -8.117188 8.578125 -8.390625 C 8.859375 -8.660156 9 -9.035156 9 -9.515625 C 9 -10.003906 8.859375 -10.375 8.578125 -10.625 C 8.304688 -10.875 7.832031 -11 7.15625 -11 L 4.8125 -11 Z M 4.8125 -7.984375 "/></g></g></g><g fill="#d32f23" fill-opacity="0.4196"><g transform="translate(741.327436, 475.848858)"><g><path d="M 7.828125 0.1875 C 7.015625 0.1875 6.25 0.0703125 5.53125 -0.15625 C 4.8125 -0.382812 4.15625 -0.710938 3.5625 -1.140625 C 2.976562 -1.566406 2.472656 -2.078125 2.046875 -2.671875 C 1.628906 -3.265625 1.304688 -3.925781 1.078125 -4.65625 C 0.847656 -5.382812 0.734375 -6.164062 0.734375 -7 C 0.734375 -7.832031 0.847656 -8.613281 1.078125 -9.34375 C 1.304688 -10.070312 1.628906 -10.734375 2.046875 -11.328125 C 2.472656 -11.921875 2.976562 -12.429688 3.5625 -12.859375 C 4.15625 -13.285156 4.8125 -13.613281 5.53125 -13.84375 C 6.25 -14.070312 7.015625 -14.1875 7.828125 -14.1875 C 8.648438 -14.1875 9.421875 -14.070312 10.140625 -13.84375 C 10.867188 -13.613281 11.523438 -13.285156 12.109375 -12.859375 C 12.691406 -12.429688 13.191406 -11.921875 13.609375 -11.328125 C 14.035156 -10.734375 14.363281 -10.070312 14.59375 -9.34375 C 14.820312 -8.613281 14.9375 -7.832031 14.9375 -7 C 14.9375 -6.164062 14.820312 -5.382812 14.59375 -4.65625 C 14.363281 -3.925781 14.035156 -3.265625 13.609375 -2.671875 C 13.191406 -2.078125 12.691406 -1.566406 12.109375 -1.140625 C 11.523438 -0.710938 10.875 -0.382812 10.15625 -0.15625 C 9.4375 0.0703125 8.660156 0.1875 7.828125 0.1875 Z M 4.578125 -7 C 4.578125 -6.132812 4.707031 -5.390625 4.96875 -4.765625 C 5.238281 -4.148438 5.613281 -3.675781 6.09375 -3.34375 C 6.582031 -3.019531 7.160156 -2.859375 7.828125 -2.859375 C 8.515625 -2.859375 9.101562 -3.019531 9.59375 -3.34375 C 10.082031 -3.675781 10.457031 -4.148438 10.71875 -4.765625 C 10.976562 -5.390625 11.109375 -6.132812 11.109375 -7 C 11.109375 -7.863281 10.976562 -8.601562 10.71875 -9.21875 C 10.457031 -9.84375 10.082031 -10.316406 9.59375 -10.640625 C 9.101562 -10.972656 8.515625 -11.140625 7.828125 -11.140625 C 7.160156 -11.140625 6.582031 -10.972656 6.09375 -10.640625 C 5.613281 -10.316406 5.238281 -9.84375 4.96875 -9.21875 C 4.707031 -8.601562 4.578125 -7.863281 4.578125 -7 Z M 4.578125 -7 "/></g></g></g><g fill="#d32f23" fill-opacity="0.4196"><g transform="translate(756.99038, 475.848858)"><g><path d="M 3.703125 0 L 0.140625 -14 L 3.75 -14 L 5.703125 -5.1875 L 7.75 -14 L 11.140625 -14 L 13.15625 -5.1875 L 15.140625 -14 L 18.46875 -14 L 14.921875 0 L 11.28125 0 L 9.3125 -8.171875 L 7.328125 0 Z M 3.703125 0 "/></g></g></g><g fill="#d32f23" fill-opacity="0.4196"><g transform="translate(775.593076, 475.848858)"><g/></g></g><g fill="#d32f23" fill-opacity="0.4196"><g transform="translate(780.376084, 475.848858)"><g><path d="M 5.046875 0 L 5.046875 -11 L 0.484375 -11 L 0.484375 -14 L 13.203125 -14 L 13.203125 -11 L 8.640625 -11 L 8.640625 0 Z M 5.046875 0 "/></g></g></g><g fill="#d32f23" fill-opacity="0.4196"><g transform="translate(794.053988, 475.848858)"><g><path d="M 7.828125 0.1875 C 7.015625 0.1875 6.25 0.0703125 5.53125 -0.15625 C 4.8125 -0.382812 4.15625 -0.710938 3.5625 -1.140625 C 2.976562 -1.566406 2.472656 -2.078125 2.046875 -2.671875 C 1.628906 -3.265625 1.304688 -3.925781 1.078125 -4.65625 C 0.847656 -5.382812 0.734375 -6.164062 0.734375 -7 C 0.734375 -7.832031 0.847656 -8.613281 1.078125 -9.34375 C 1.304688 -10.070312 1.628906 -10.734375 2.046875 -11.328125 C 2.472656 -11.921875 2.976562 -12.429688 3.5625 -12.859375 C 4.15625 -13.285156 4.8125 -13.613281 5.53125 -13.84375 C 6.25 -14.070312 7.015625 -14.1875 7.828125 -14.1875 C 8.648438 -14.1875 9.421875 -14.070312 10.140625 -13.84375 C 10.867188 -13.613281 11.523438 -13.285156 12.109375 -12.859375 C 12.691406 -12.429688 13.191406 -11.921875 13.609375 -11.328125 C 14.035156 -10.734375 14.363281 -10.070312 14.59375 -9.34375 C 14.820312 -8.613281 14.9375 -7.832031 14.9375 -7 C 14.9375 -6.164062 14.820312 -5.382812 14.59375 -4.65625 C 14.363281 -3.925781 14.035156 -3.265625 13.609375 -2.671875 C 13.191406 -2.078125 12.691406 -1.566406 12.109375 -1.140625 C 11.523438 -0.710938 10.875 -0.382812 10.15625 -0.15625 C 9.4375 0.0703125 8.660156 0.1875 7.828125 0.1875 Z M 4.578125 -7 C 4.578125 -6.132812 4.707031 -5.390625 4.96875 -4.765625 C 5.238281 -4.148438 5.613281 -3.675781 6.09375 -3.34375 C 6.582031 -3.019531 7.160156 -2.859375 7.828125 -2.859375 C 8.515625 -2.859375 9.101562 -3.019531 9.59375 -3.34375 C 10.082031 -3.675781 10.457031 -4.148438 10.71875 -4.765625 C 10.976562 -5.390625 11.109375 -6.132812 11.109375 -7 C 11.109375 -7.863281 10.976562 -8.601562 10.71875 -9.21875 C 10.457031 -9.84375 10.082031 -10.316406 9.59375 -10.640625 C 9.101562 -10.972656 8.515625 -11.140625 7.828125 -11.140625 C 7.160156 -11.140625 6.582031 -10.972656 6.09375 -10.640625 C 5.613281 -10.316406 5.238281 -9.84375 4.96875 -9.21875 C 4.707031 -8.601562 4.578125 -7.863281 4.578125 -7 Z M 4.578125 -7 "/></g></g></g><g fill="#d32f23" fill-opacity="0.4196"><g transform="translate(809.716932, 475.848858)"><g><path d="M 7.59375 0.1875 C 6.8125 0.1875 6.070312 0.0703125 5.375 -0.15625 C 4.675781 -0.394531 4.046875 -0.726562 3.484375 -1.15625 C 2.921875 -1.582031 2.429688 -2.09375 2.015625 -2.6875 C 1.609375 -3.28125 1.289062 -3.941406 1.0625 -4.671875 C 0.84375 -5.398438 0.734375 -6.175781 0.734375 -7 C 0.734375 -8.03125 0.898438 -8.976562 1.234375 -9.84375 C 1.578125 -10.71875 2.0625 -11.476562 2.6875 -12.125 C 3.320312 -12.78125 4.078125 -13.285156 4.953125 -13.640625 C 5.828125 -14.003906 6.800781 -14.1875 7.875 -14.1875 C 9.34375 -14.1875 10.628906 -13.828125 11.734375 -13.109375 C 12.847656 -12.390625 13.691406 -11.332031 14.265625 -9.9375 L 10.65625 -8.765625 C 10.425781 -9.535156 10.070312 -10.125 9.59375 -10.53125 C 9.125 -10.9375 8.523438 -11.140625 7.796875 -11.140625 C 7.128906 -11.140625 6.550781 -10.96875 6.0625 -10.625 C 5.582031 -10.289062 5.210938 -9.8125 4.953125 -9.1875 C 4.703125 -8.570312 4.578125 -7.84375 4.578125 -7 C 4.578125 -6.164062 4.703125 -5.4375 4.953125 -4.8125 C 5.203125 -4.1875 5.566406 -3.703125 6.046875 -3.359375 C 6.523438 -3.023438 7.109375 -2.859375 7.796875 -2.859375 C 8.285156 -2.859375 8.726562 -2.941406 9.125 -3.109375 C 9.53125 -3.273438 9.847656 -3.5 10.078125 -3.78125 C 10.316406 -4.0625 10.4375 -4.375 10.4375 -4.71875 L 10.4375 -4.96875 L 7.296875 -4.96875 L 7.296875 -7.6875 L 14.015625 -7.6875 L 14.015625 0 L 12.140625 0 L 11.90625 -1.734375 C 11.457031 -1.128906 10.863281 -0.65625 10.125 -0.3125 C 9.394531 0.0195312 8.550781 0.1875 7.59375 0.1875 Z M 7.59375 0.1875 "/></g></g></g><g fill="#d32f23" fill-opacity="0.4196"><g transform="translate(824.822167, 475.848858)"><g><path d="M 1.234375 0 L 1.234375 -14 L 12.296875 -14 L 12.296875 -11 L 4.8125 -11 L 4.8125 -8.546875 L 10.484375 -8.546875 L 10.484375 -5.640625 L 4.8125 -5.640625 L 4.8125 -3.015625 L 12.296875 -3.015625 L 12.296875 0 Z M 1.234375 0 "/></g></g></g><g fill="#d32f23" fill-opacity="0.4196"><g transform="translate(837.800579, 475.848858)"><g><path d="M 5.046875 0 L 5.046875 -11 L 0.484375 -11 L 0.484375 -14 L 13.203125 -14 L 13.203125 -11 L 8.640625 -11 L 8.640625 0 Z M 5.046875 0 "/></g></g></g><g fill="#d32f23" fill-opacity="0.4196"><g transform="translate(851.478483, 475.848858)"><g><path d="M 10.15625 0 L 10.15625 -5.71875 L 4.8125 -5.71875 L 4.8125 0 L 1.234375 0 L 1.234375 -14 L 4.8125 -14 L 4.8125 -8.734375 L 10.15625 -8.734375 L 10.15625 -14 L 13.734375 -14 L 13.734375 0 Z M 10.15625 0 "/></g></g></g><g fill="#d32f23" fill-opacity="0.4196"><g transform="translate(866.432485, 475.848858)"><g><path d="M 1.234375 0 L 1.234375 -14 L 12.296875 -14 L 12.296875 -11 L 4.8125 -11 L 4.8125 -8.546875 L 10.484375 -8.546875 L 10.484375 -5.640625 L 4.8125 -5.640625 L 4.8125 -3.015625 L 12.296875 -3.015625 L 12.296875 0 Z M 1.234375 0 "/></g></g></g><g fill="#d32f23" fill-opacity="0.4196"><g transform="translate(879.410897, 475.848858)"><g><path d="M 1.234375 0 L 1.234375 -14 L 7.40625 -14 C 8.375 -14 9.203125 -13.890625 9.890625 -13.671875 C 10.578125 -13.453125 11.132812 -13.148438 11.5625 -12.765625 C 12 -12.390625 12.316406 -11.945312 12.515625 -11.4375 C 12.722656 -10.9375 12.828125 -10.398438 12.828125 -9.828125 C 12.828125 -9.210938 12.703125 -8.65625 12.453125 -8.15625 C 12.210938 -7.65625 11.851562 -7.234375 11.375 -6.890625 C 10.90625 -6.546875 10.332031 -6.296875 9.65625 -6.140625 C 10.125 -6.023438 10.535156 -5.832031 10.890625 -5.5625 C 11.242188 -5.300781 11.535156 -4.941406 11.765625 -4.484375 C 12.003906 -4.023438 12.171875 -3.441406 12.265625 -2.734375 C 12.316406 -2.316406 12.367188 -1.976562 12.421875 -1.71875 C 12.472656 -1.457031 12.53125 -1.253906 12.59375 -1.109375 C 12.65625 -0.972656 12.726562 -0.875 12.8125 -0.8125 C 12.90625 -0.75 13.019531 -0.707031 13.15625 -0.6875 L 13.15625 0 L 8.921875 0 C 8.828125 -0.21875 8.742188 -0.507812 8.671875 -0.875 C 8.609375 -1.25 8.539062 -1.765625 8.46875 -2.421875 C 8.40625 -2.910156 8.335938 -3.332031 8.265625 -3.6875 C 8.203125 -4.039062 8.101562 -4.332031 7.96875 -4.5625 C 7.84375 -4.789062 7.660156 -4.957031 7.421875 -5.0625 C 7.179688 -5.164062 6.875 -5.21875 6.5 -5.21875 L 4.8125 -5.21875 L 4.8125 0 Z M 4.8125 -7.984375 L 7.15625 -7.984375 C 7.832031 -7.984375 8.304688 -8.117188 8.578125 -8.390625 C 8.859375 -8.660156 9 -9.035156 9 -9.515625 C 9 -10.003906 8.859375 -10.375 8.578125 -10.625 C 8.304688 -10.875 7.832031 -11 7.15625 -11 L 4.8125 -11 Z M 4.8125 -7.984375 "/></g></g></g><g fill="#c1ff72" fill-opacity="1"><g transform="translate(712.506489, 475.848858)"><g><path d="M 7.59375 0.1875 C 6.8125 0.1875 6.070312 0.0703125 5.375 -0.15625 C 4.675781 -0.394531 4.046875 -0.726562 3.484375 -1.15625 C 2.921875 -1.582031 2.429688 -2.09375 2.015625 -2.6875 C 1.609375 -3.28125 1.289062 -3.941406 1.0625 -4.671875 C 0.84375 -5.398438 0.734375 -6.175781 0.734375 -7 C 0.734375 -8.03125 0.898438 -8.976562 1.234375 -9.84375 C 1.578125 -10.71875 2.0625 -11.476562 2.6875 -12.125 C 3.320312 -12.78125 4.078125 -13.285156 4.953125 -13.640625 C 5.828125 -14.003906 6.800781 -14.1875 7.875 -14.1875 C 9.34375 -14.1875 10.628906 -13.828125 11.734375 -13.109375 C 12.847656 -12.390625 13.691406 -11.332031 14.265625 -9.9375 L 10.65625 -8.765625 C 10.425781 -9.535156 10.070312 -10.125 9.59375 -10.53125 C 9.125 -10.9375 8.523438 -11.140625 7.796875 -11.140625 C 7.128906 -11.140625 6.550781 -10.96875 6.0625 -10.625 C 5.582031 -10.289062 5.210938 -9.8125 4.953125 -9.1875 C 4.703125 -8.570312 4.578125 -7.84375 4.578125 -7 C 4.578125 -6.164062 4.703125 -5.4375 4.953125 -4.8125 C 5.203125 -4.1875 5.566406 -3.703125 6.046875 -3.359375 C 6.523438 -3.023438 7.109375 -2.859375 7.796875 -2.859375 C 8.285156 -2.859375 8.726562 -2.941406 9.125 -3.109375 C 9.53125 -3.273438 9.847656 -3.5 10.078125 -3.78125 C 10.316406 -4.0625 10.4375 -4.375 10.4375 -4.71875 L 10.4375 -4.96875 L 7.296875 -4.96875 L 7.296875 -7.6875 L 14.015625 -7.6875 L 14.015625 0 L 12.140625 0 L 11.90625 -1.734375 C 11.457031 -1.128906 10.863281 -0.65625 10.125 -0.3125 C 9.394531 0.0195312 8.550781 0.1875 7.59375 0.1875 Z M 7.59375 0.1875 "/></g></g></g><g fill="#c1ff72" fill-opacity="1"><g transform="translate(727.611725, 475.848858)"><g><path d="M 1.234375 0 L 1.234375 -14 L 7.40625 -14 C 8.375 -14 9.203125 -13.890625 9.890625 -13.671875 C 10.578125 -13.453125 11.132812 -13.148438 11.5625 -12.765625 C 12 -12.390625 12.316406 -11.945312 12.515625 -11.4375 C 12.722656 -10.9375 12.828125 -10.398438 12.828125 -9.828125 C 12.828125 -9.210938 12.703125 -8.65625 12.453125 -8.15625 C 12.210938 -7.65625 11.851562 -7.234375 11.375 -6.890625 C 10.90625 -6.546875 10.332031 -6.296875 9.65625 -6.140625 C 10.125 -6.023438 10.535156 -5.832031 10.890625 -5.5625 C 11.242188 -5.300781 11.535156 -4.941406 11.765625 -4.484375 C 12.003906 -4.023438 12.171875 -3.441406 12.265625 -2.734375 C 12.316406 -2.316406 12.367188 -1.976562 12.421875 -1.71875 C 12.472656 -1.457031 12.53125 -1.253906 12.59375 -1.109375 C 12.65625 -0.972656 12.726562 -0.875 12.8125 -0.8125 C 12.90625 -0.75 13.019531 -0.707031 13.15625 -0.6875 L 13.15625 0 L 8.921875 0 C 8.828125 -0.21875 8.742188 -0.507812 8.671875 -0.875 C 8.609375 -1.25 8.539062 -1.765625 8.46875 -2.421875 C 8.40625 -2.910156 8.335938 -3.332031 8.265625 -3.6875 C 8.203125 -4.039062 8.101562 -4.332031 7.96875 -4.5625 C 7.84375 -4.789062 7.660156 -4.957031 7.421875 -5.0625 C 7.179688 -5.164062 6.875 -5.21875 6.5 -5.21875 L 4.8125 -5.21875 L 4.8125 0 Z M 4.8125 -7.984375 L 7.15625 -7.984375 C 7.832031 -7.984375 8.304688 -8.117188 8.578125 -8.390625 C 8.859375 -8.660156 9 -9.035156 9 -9.515625 C 9 -10.003906 8.859375 -10.375 8.578125 -10.625 C 8.304688 -10.875 7.832031 -11 7.15625 -11 L 4.8125 -11 Z M 4.8125 -7.984375 "/></g></g></g><g fill="#c1ff72" fill-opacity="1"><g transform="translate(741.327436, 475.848858)"><g><path d="M 7.828125 0.1875 C 7.015625 0.1875 6.25 0.0703125 5.53125 -0.15625 C 4.8125 -0.382812 4.15625 -0.710938 3.5625 -1.140625 C 2.976562 -1.566406 2.472656 -2.078125 2.046875 -2.671875 C 1.628906 -3.265625 1.304688 -3.925781 1.078125 -4.65625 C 0.847656 -5.382812 0.734375 -6.164062 0.734375 -7 C 0.734375 -7.832031 0.847656 -8.613281 1.078125 -9.34375 C 1.304688 -10.070312 1.628906 -10.734375 2.046875 -11.328125 C 2.472656 -11.921875 2.976562 -12.429688 3.5625 -12.859375 C 4.15625 -13.285156 4.8125 -13.613281 5.53125 -13.84375 C 6.25 -14.070312 7.015625 -14.1875 7.828125 -14.1875 C 8.648438 -14.1875 9.421875 -14.070312 10.140625 -13.84375 C 10.867188 -13.613281 11.523438 -13.285156 12.109375 -12.859375 C 12.691406 -12.429688 13.191406 -11.921875 13.609375 -11.328125 C 14.035156 -10.734375 14.363281 -10.070312 14.59375 -9.34375 C 14.820312 -8.613281 14.9375 -7.832031 14.9375 -7 C 14.9375 -6.164062 14.820312 -5.382812 14.59375 -4.65625 C 14.363281 -3.925781 14.035156 -3.265625 13.609375 -2.671875 C 13.191406 -2.078125 12.691406 -1.566406 12.109375 -1.140625 C 11.523438 -0.710938 10.875 -0.382812 10.15625 -0.15625 C 9.4375 0.0703125 8.660156 0.1875 7.828125 0.1875 Z M 4.578125 -7 C 4.578125 -6.132812 4.707031 -5.390625 4.96875 -4.765625 C 5.238281 -4.148438 5.613281 -3.675781 6.09375 -3.34375 C 6.582031 -3.019531 7.160156 -2.859375 7.828125 -2.859375 C 8.515625 -2.859375 9.101562 -3.019531 9.59375 -3.34375 C 10.082031 -3.675781 10.457031 -4.148438 10.71875 -4.765625 C 10.976562 -5.390625 11.109375 -6.132812 11.109375 -7 C 11.109375 -7.863281 10.976562 -8.601562 10.71875 -9.21875 C 10.457031 -9.84375 10.082031 -10.316406 9.59375 -10.640625 C 9.101562 -10.972656 8.515625 -11.140625 7.828125 -11.140625 C 7.160156 -11.140625 6.582031 -10.972656 6.09375 -10.640625 C 5.613281 -10.316406 5.238281 -9.84375 4.96875 -9.21875 C 4.707031 -8.601562 4.578125 -7.863281 4.578125 -7 Z M 4.578125 -7 "/></g></g></g><g fill="#c1ff72" fill-opacity="1"><g transform="translate(756.99038, 475.848858)"><g><path d="M 3.703125 0 L 0.140625 -14 L 3.75 -14 L 5.703125 -5.1875 L 7.75 -14 L 11.140625 -14 L 13.15625 -5.1875 L 15.140625 -14 L 18.46875 -14 L 14.921875 0 L 11.28125 0 L 9.3125 -8.171875 L 7.328125 0 Z M 3.703125 0 "/></g></g></g><g fill="#c1ff72" fill-opacity="1"><g transform="translate(775.593076, 475.848858)"><g/></g></g><g fill="#c1ff72" fill-opacity="1"><g transform="translate(780.376084, 475.848858)"><g><path d="M 5.046875 0 L 5.046875 -11 L 0.484375 -11 L 0.484375 -14 L 13.203125 -14 L 13.203125 -11 L 8.640625 -11 L 8.640625 0 Z M 5.046875 0 "/></g></g></g><g fill="#c1ff72" fill-opacity="1"><g transform="translate(794.053988, 475.848858)"><g><path d="M 7.828125 0.1875 C 7.015625 0.1875 6.25 0.0703125 5.53125 -0.15625 C 4.8125 -0.382812 4.15625 -0.710938 3.5625 -1.140625 C 2.976562 -1.566406 2.472656 -2.078125 2.046875 -2.671875 C 1.628906 -3.265625 1.304688 -3.925781 1.078125 -4.65625 C 0.847656 -5.382812 0.734375 -6.164062 0.734375 -7 C 0.734375 -7.832031 0.847656 -8.613281 1.078125 -9.34375 C 1.304688 -10.070312 1.628906 -10.734375 2.046875 -11.328125 C 2.472656 -11.921875 2.976562 -12.429688 3.5625 -12.859375 C 4.15625 -13.285156 4.8125 -13.613281 5.53125 -13.84375 C 6.25 -14.070312 7.015625 -14.1875 7.828125 -14.1875 C 8.648438 -14.1875 9.421875 -14.070312 10.140625 -13.84375 C 10.867188 -13.613281 11.523438 -13.285156 12.109375 -12.859375 C 12.691406 -12.429688 13.191406 -11.921875 13.609375 -11.328125 C 14.035156 -10.734375 14.363281 -10.070312 14.59375 -9.34375 C 14.820312 -8.613281 14.9375 -7.832031 14.9375 -7 C 14.9375 -6.164062 14.820312 -5.382812 14.59375 -4.65625 C 14.363281 -3.925781 14.035156 -3.265625 13.609375 -2.671875 C 13.191406 -2.078125 12.691406 -1.566406 12.109375 -1.140625 C 11.523438 -0.710938 10.875 -0.382812 10.15625 -0.15625 C 9.4375 0.0703125 8.660156 0.1875 7.828125 0.1875 Z M 4.578125 -7 C 4.578125 -6.132812 4.707031 -5.390625 4.96875 -4.765625 C 5.238281 -4.148438 5.613281 -3.675781 6.09375 -3.34375 C 6.582031 -3.019531 7.160156 -2.859375 7.828125 -2.859375 C 8.515625 -2.859375 9.101562 -3.019531 9.59375 -3.34375 C 10.082031 -3.675781 10.457031 -4.148438 10.71875 -4.765625 C 10.976562 -5.390625 11.109375 -6.132812 11.109375 -7 C 11.109375 -7.863281 10.976562 -8.601562 10.71875 -9.21875 C 10.457031 -9.84375 10.082031 -10.316406 9.59375 -10.640625 C 9.101562 -10.972656 8.515625 -11.140625 7.828125 -11.140625 C 7.160156 -11.140625 6.582031 -10.972656 6.09375 -10.640625 C 5.613281 -10.316406 5.238281 -9.84375 4.96875 -9.21875 C 4.707031 -8.601562 4.578125 -7.863281 4.578125 -7 Z M 4.578125 -7 "/></g></g></g><g fill="#c1ff72" fill-opacity="1"><g transform="translate(809.716932, 475.848858)"><g><path d="M 7.59375 0.1875 C 6.8125 0.1875 6.070312 0.0703125 5.375 -0.15625 C 4.675781 -0.394531 4.046875 -0.726562 3.484375 -1.15625 C 2.921875 -1.582031 2.429688 -2.09375 2.015625 -2.6875 C 1.609375 -3.28125 1.289062 -3.941406 1.0625 -4.671875 C 0.84375 -5.398438 0.734375 -6.175781 0.734375 -7 C 0.734375 -8.03125 0.898438 -8.976562 1.234375 -9.84375 C 1.578125 -10.71875 2.0625 -11.476562 2.6875 -12.125 C 3.320312 -12.78125 4.078125 -13.285156 4.953125 -13.640625 C 5.828125 -14.003906 6.800781 -14.1875 7.875 -14.1875 C 9.34375 -14.1875 10.628906 -13.828125 11.734375 -13.109375 C 12.847656 -12.390625 13.691406 -11.332031 14.265625 -9.9375 L 10.65625 -8.765625 C 10.425781 -9.535156 10.070312 -10.125 9.59375 -10.53125 C 9.125 -10.9375 8.523438 -11.140625 7.796875 -11.140625 C 7.128906 -11.140625 6.550781 -10.96875 6.0625 -10.625 C 5.582031 -10.289062 5.210938 -9.8125 4.953125 -9.1875 C 4.703125 -8.570312 4.578125 -7.84375 4.578125 -7 C 4.578125 -6.164062 4.703125 -5.4375 4.953125 -4.8125 C 5.203125 -4.1875 5.566406 -3.703125 6.046875 -3.359375 C 6.523438 -3.023438 7.109375 -2.859375 7.796875 -2.859375 C 8.285156 -2.859375 8.726562 -2.941406 9.125 -3.109375 C 9.53125 -3.273438 9.847656 -3.5 10.078125 -3.78125 C 10.316406 -4.0625 10.4375 -4.375 10.4375 -4.71875 L 10.4375 -4.96875 L 7.296875 -4.96875 L 7.296875 -7.6875 L 14.015625 -7.6875 L 14.015625 0 L 12.140625 0 L 11.90625 -1.734375 C 11.457031 -1.128906 10.863281 -0.65625 10.125 -0.3125 C 9.394531 0.0195312 8.550781 0.1875 7.59375 0.1875 Z M 7.59375 0.1875 "/></g></g></g><g fill="#c1ff72" fill-opacity="1"><g transform="translate(824.822167, 475.848858)"><g><path d="M 1.234375 0 L 1.234375 -14 L 12.296875 -14 L 12.296875 -11 L 4.8125 -11 L 4.8125 -8.546875 L 10.484375 -8.546875 L 10.484375 -5.640625 L 4.8125 -5.640625 L 4.8125 -3.015625 L 12.296875 -3.015625 L 12.296875 0 Z M 1.234375 0 "/></g></g></g><g fill="#c1ff72" fill-opacity="1"><g transform="translate(837.800579, 475.848858)"><g><path d="M 5.046875 0 L 5.046875 -11 L 0.484375 -11 L 0.484375 -14 L 13.203125 -14 L 13.203125 -11 L 8.640625 -11 L 8.640625 0 Z M 5.046875 0 "/></g></g></g><g fill="#c1ff72" fill-opacity="1"><g transform="translate(851.478483, 475.848858)"><g><path d="M 10.15625 0 L 10.15625 -5.71875 L 4.8125 -5.71875 L 4.8125 0 L 1.234375 0 L 1.234375 -14 L 4.8125 -14 L 4.8125 -8.734375 L 10.15625 -8.734375 L 10.15625 -14 L 13.734375 -14 L 13.734375 0 Z M 10.15625 0 "/></g></g></g><g fill="#c1ff72" fill-opacity="1"><g transform="translate(866.432485, 475.848858)"><g><path d="M 1.234375 0 L 1.234375 -14 L 12.296875 -14 L 12.296875 -11 L 4.8125 -11 L 4.8125 -8.546875 L 10.484375 -8.546875 L 10.484375 -5.640625 L 4.8125 -5.640625 L 4.8125 -3.015625 L 12.296875 -3.015625 L 12.296875 0 Z M 1.234375 0 "/></g></g></g><g fill="#c1ff72" fill-opacity="1"><g transform="translate(879.410897, 475.848858)"><g><path d="M 1.234375 0 L 1.234375 -14 L 7.40625 -14 C 8.375 -14 9.203125 -13.890625 9.890625 -13.671875 C 10.578125 -13.453125 11.132812 -13.148438 11.5625 -12.765625 C 12 -12.390625 12.316406 -11.945312 12.515625 -11.4375 C 12.722656 -10.9375 12.828125 -10.398438 12.828125 -9.828125 C 12.828125 -9.210938 12.703125 -8.65625 12.453125 -8.15625 C 12.210938 -7.65625 11.851562 -7.234375 11.375 -6.890625 C 10.90625 -6.546875 10.332031 -6.296875 9.65625 -6.140625 C 10.125 -6.023438 10.535156 -5.832031 10.890625 -5.5625 C 11.242188 -5.300781 11.535156 -4.941406 11.765625 -4.484375 C 12.003906 -4.023438 12.171875 -3.441406 12.265625 -2.734375 C 12.316406 -2.316406 12.367188 -1.976562 12.421875 -1.71875 C 12.472656 -1.457031 12.53125 -1.253906 12.59375 -1.109375 C 12.65625 -0.972656 12.726562 -0.875 12.8125 -0.8125 C 12.90625 -0.75 13.019531 -0.707031 13.15625 -0.6875 L 13.15625 0 L 8.921875 0 C 8.828125 -0.21875 8.742188 -0.507812 8.671875 -0.875 C 8.609375 -1.25 8.539062 -1.765625 8.46875 -2.421875 C 8.40625 -2.910156 8.335938 -3.332031 8.265625 -3.6875 C 8.203125 -4.039062 8.101562 -4.332031 7.96875 -4.5625 C 7.84375 -4.789062 7.660156 -4.957031 7.421875 -5.0625 C 7.179688 -5.164062 6.875 -5.21875 6.5 -5.21875 L 4.8125 -5.21875 L 4.8125 0 Z M 4.8125 -7.984375 L 7.15625 -7.984375 C 7.832031 -7.984375 8.304688 -8.117188 8.578125 -8.390625 C 8.859375 -8.660156 9 -9.035156 9 -9.515625 C 9 -10.003906 8.859375 -10.375 8.578125 -10.625 C 8.304688 -10.875 7.832031 -11 7.15625 -11 L 4.8125 -11 Z M 4.8125 -7.984375 "/></g></g></g><g fill="#d32f23" fill-opacity="0.4196"><g transform="translate(608.512439, 443.378638)"><g><path d="M 21.265625 0.65625 C 17.441406 0.65625 14.175781 0.0507812 11.46875 -1.15625 C 8.757812 -2.375 6.601562 -4.085938 5 -6.296875 C 3.394531 -8.503906 2.34375 -11.101562 1.84375 -14.09375 L 7.625 -17.015625 C 8.28125 -12.734375 9.734375 -9.601562 11.984375 -7.625 C 14.234375 -5.65625 17.414062 -4.671875 21.53125 -4.671875 C 23.09375 -4.671875 24.566406 -4.820312 25.953125 -5.125 C 27.335938 -5.4375 28.554688 -5.914062 29.609375 -6.5625 C 30.671875 -7.207031 31.503906 -8.050781 32.109375 -9.09375 C 32.722656 -10.132812 33.03125 -11.390625 33.03125 -12.859375 C 33.03125 -14.160156 32.769531 -15.253906 32.25 -16.140625 C 31.726562 -17.023438 30.914062 -17.773438 29.8125 -18.390625 C 28.707031 -19.015625 27.289062 -19.578125 25.5625 -20.078125 L 16.203125 -22.734375 C 12.046875 -23.921875 8.992188 -25.519531 7.046875 -27.53125 C 5.097656 -29.550781 4.125 -32.085938 4.125 -35.140625 C 4.125 -36.984375 4.484375 -38.71875 5.203125 -40.34375 C 5.929688 -41.976562 6.988281 -43.425781 8.375 -44.6875 C 9.757812 -45.945312 11.429688 -46.929688 13.390625 -47.640625 C 15.347656 -48.359375 17.5625 -48.71875 20.03125 -48.71875 C 22.800781 -48.71875 25.332031 -48.25 27.625 -47.3125 C 29.925781 -46.382812 31.929688 -45.109375 33.640625 -43.484375 C 35.359375 -41.859375 36.734375 -40.007812 37.765625 -37.9375 L 32.3125 -34.09375 C 31.445312 -36.519531 30.351562 -38.40625 29.03125 -39.75 C 27.707031 -41.09375 26.25 -42.035156 24.65625 -42.578125 C 23.070312 -43.117188 21.425781 -43.390625 19.71875 -43.390625 C 17.769531 -43.390625 16.0625 -43.09375 14.59375 -42.5 C 13.132812 -41.90625 12 -41.039062 11.1875 -39.90625 C 10.375 -38.78125 9.96875 -37.429688 9.96875 -35.859375 C 9.96875 -34.710938 10.210938 -33.710938 10.703125 -32.859375 C 11.191406 -32.015625 12 -31.269531 13.125 -30.625 C 14.25 -29.976562 15.753906 -29.382812 17.640625 -28.84375 L 27.703125 -25.921875 C 30.429688 -25.140625 32.613281 -24.144531 34.25 -22.9375 C 35.882812 -21.738281 37.0625 -20.359375 37.78125 -18.796875 C 38.507812 -17.242188 38.875 -15.523438 38.875 -13.640625 C 38.875 -11.472656 38.457031 -9.507812 37.625 -7.75 C 36.789062 -6 35.601562 -4.492188 34.0625 -3.234375 C 32.53125 -1.984375 30.679688 -1.019531 28.515625 -0.34375 C 26.347656 0.320312 23.929688 0.65625 21.265625 0.65625 Z M 21.265625 0.65625 "/></g></g></g><g fill="#d32f23" fill-opacity="0.4196"><g transform="translate(650.178959, 443.378638)"><g><path d="M 26.5625 0.65625 C 23.988281 0.65625 21.546875 0.25 19.234375 -0.5625 C 16.929688 -1.375 14.832031 -2.519531 12.9375 -4 C 11.039062 -5.488281 9.398438 -7.253906 8.015625 -9.296875 C 6.628906 -11.347656 5.5625 -13.617188 4.8125 -16.109375 C 4.070312 -18.597656 3.703125 -21.238281 3.703125 -24.03125 C 3.703125 -26.820312 4.070312 -29.460938 4.8125 -31.953125 C 5.5625 -34.441406 6.628906 -36.707031 8.015625 -38.75 C 9.398438 -40.800781 11.039062 -42.566406 12.9375 -44.046875 C 14.832031 -45.535156 16.929688 -46.6875 19.234375 -47.5 C 21.546875 -48.3125 23.988281 -48.71875 26.5625 -48.71875 C 29.144531 -48.71875 31.585938 -48.3125 33.890625 -47.5 C 36.191406 -46.6875 38.296875 -45.535156 40.203125 -44.046875 C 42.109375 -42.566406 43.753906 -40.800781 45.140625 -38.75 C 46.523438 -36.707031 47.597656 -34.441406 48.359375 -31.953125 C 49.117188 -29.460938 49.5 -26.820312 49.5 -24.03125 C 49.5 -21.238281 49.117188 -18.597656 48.359375 -16.109375 C 47.597656 -13.617188 46.523438 -11.347656 45.140625 -9.296875 C 43.753906 -7.253906 42.109375 -5.488281 40.203125 -4 C 38.296875 -2.519531 36.191406 -1.375 33.890625 -0.5625 C 31.585938 0.25 29.144531 0.65625 26.5625 0.65625 Z M 10.328125 -24.03125 C 10.328125 -20.03125 10.972656 -16.582031 12.265625 -13.6875 C 13.566406 -10.800781 15.429688 -8.578125 17.859375 -7.015625 C 20.285156 -5.453125 23.1875 -4.671875 26.5625 -4.671875 C 29.96875 -4.671875 32.882812 -5.453125 35.3125 -7.015625 C 37.75 -8.578125 39.617188 -10.800781 40.921875 -13.6875 C 42.222656 -16.582031 42.875 -20.03125 42.875 -24.03125 C 42.875 -28.039062 42.222656 -31.488281 40.921875 -34.375 C 39.617188 -37.269531 37.75 -39.492188 35.3125 -41.046875 C 32.882812 -42.609375 29.96875 -43.390625 26.5625 -43.390625 C 23.1875 -43.390625 20.285156 -42.609375 17.859375 -41.046875 C 15.429688 -39.492188 13.566406 -37.269531 12.265625 -34.375 C 10.972656 -31.488281 10.328125 -28.039062 10.328125 -24.03125 Z M 10.328125 -24.03125 "/></g></g></g><g fill="#d32f23" fill-opacity="0.4196"><g transform="translate(703.37441, 443.378638)"><g><path d="M 12.015625 -48.0625 L 12.015625 -5.453125 L 38.328125 -5.453125 L 38.328125 0 L 6.171875 0 L 6.171875 -48.0625 Z M 12.015625 -48.0625 "/></g></g></g><g fill="#d32f23" fill-opacity="0.4196"><g transform="translate(744.164089, 443.378638)"><g><path d="M 19.8125 0 L 1.171875 -48.0625 L 7.671875 -48.0625 L 22.40625 -9.0625 L 37.15625 -48.0625 L 43.328125 -48.0625 L 24.6875 0 Z M 19.8125 0 "/></g></g></g><g fill="#d32f23" fill-opacity="0.4196"><g transform="translate(788.655997, 443.378638)"><g><path d="M 6.171875 0 L 6.171875 -48.0625 L 12.015625 -48.0625 L 12.015625 0 Z M 6.171875 0 "/></g></g></g><g fill="#d32f23" fill-opacity="0.4196"><g transform="translate(806.842473, 443.378638)"><g><path d="M 6.171875 0 L 6.171875 -48.0625 L 15.328125 -48.0625 L 28.78125 -9.578125 L 42.28125 -48.0625 L 51.1875 -48.0625 L 51.1875 0 L 45.34375 0 L 45.34375 -40.40625 L 31.109375 0 L 26.234375 0 L 12.015625 -40.40625 L 12.015625 0 Z M 6.171875 0 "/></g></g></g><g fill="#d32f23" fill-opacity="0.4196"><g transform="translate(864.194833, 443.378638)"><g><path d="M 1.171875 0 L 19.8125 -48.0625 L 24.6875 -48.0625 L 43.328125 0 L 36.828125 0 L 32.21875 -12.21875 L 11.953125 -12.21875 L 7.34375 0 Z M 14.03125 -17.671875 L 30.140625 -17.671875 L 22.078125 -39 Z M 14.03125 -17.671875 "/></g></g></g><g fill="#d32f23" fill-opacity="0.4196"><g transform="translate(908.686741, 443.378638)"><g><path d="M 20.234375 0 L 20.234375 -42.609375 L 2.46875 -42.609375 L 2.46875 -48.0625 L 43.84375 -48.0625 L 43.84375 -42.609375 L 26.078125 -42.609375 L 26.078125 0 Z M 20.234375 0 "/></g></g></g><g fill="#d32f23" fill-opacity="0.4196"><g transform="translate(954.997306, 443.378638)"><g><path d="M 6.171875 0 L 6.171875 -48.0625 L 40.265625 -48.0625 L 40.265625 -42.609375 L 12.015625 -42.609375 L 12.015625 -27.46875 L 33.78125 -27.46875 L 33.78125 -22.015625 L 12.015625 -22.015625 L 12.015625 -5.453125 L 40.265625 -5.453125 L 40.265625 0 Z M 6.171875 0 "/></g></g></g><g fill="#c1ff72" fill-opacity="1"><g transform="translate(607.788335, 442.726635)"><g><path d="M 21.265625 0.65625 C 17.441406 0.65625 14.175781 0.0507812 11.46875 -1.15625 C 8.757812 -2.375 6.601562 -4.085938 5 -6.296875 C 3.394531 -8.503906 2.34375 -11.101562 1.84375 -14.09375 L 7.625 -17.015625 C 8.28125 -12.734375 9.734375 -9.601562 11.984375 -7.625 C 14.234375 -5.65625 17.414062 -4.671875 21.53125 -4.671875 C 23.09375 -4.671875 24.566406 -4.820312 25.953125 -5.125 C 27.335938 -5.4375 28.554688 -5.914062 29.609375 -6.5625 C 30.671875 -7.207031 31.503906 -8.050781 32.109375 -9.09375 C 32.722656 -10.132812 33.03125 -11.390625 33.03125 -12.859375 C 33.03125 -14.160156 32.769531 -15.253906 32.25 -16.140625 C 31.726562 -17.023438 30.914062 -17.773438 29.8125 -18.390625 C 28.707031 -19.015625 27.289062 -19.578125 25.5625 -20.078125 L 16.203125 -22.734375 C 12.046875 -23.921875 8.992188 -25.519531 7.046875 -27.53125 C 5.097656 -29.550781 4.125 -32.085938 4.125 -35.140625 C 4.125 -36.984375 4.484375 -38.71875 5.203125 -40.34375 C 5.929688 -41.976562 6.988281 -43.425781 8.375 -44.6875 C 9.757812 -45.945312 11.429688 -46.929688 13.390625 -47.640625 C 15.347656 -48.359375 17.5625 -48.71875 20.03125 -48.71875 C 22.800781 -48.71875 25.332031 -48.25 27.625 -47.3125 C 29.925781 -46.382812 31.929688 -45.109375 33.640625 -43.484375 C 35.359375 -41.859375 36.734375 -40.007812 37.765625 -37.9375 L 32.3125 -34.09375 C 31.445312 -36.519531 30.351562 -38.40625 29.03125 -39.75 C 27.707031 -41.09375 26.25 -42.035156 24.65625 -42.578125 C 23.070312 -43.117188 21.425781 -43.390625 19.71875 -43.390625 C 17.769531 -43.390625 16.0625 -43.09375 14.59375 -42.5 C 13.132812 -41.90625 12 -41.039062 11.1875 -39.90625 C 10.375 -38.78125 9.96875 -37.429688 9.96875 -35.859375 C 9.96875 -34.710938 10.210938 -33.710938 10.703125 -32.859375 C 11.191406 -32.015625 12 -31.269531 13.125 -30.625 C 14.25 -29.976562 15.753906 -29.382812 17.640625 -28.84375 L 27.703125 -25.921875 C 30.429688 -25.140625 32.613281 -24.144531 34.25 -22.9375 C 35.882812 -21.738281 37.0625 -20.359375 37.78125 -18.796875 C 38.507812 -17.242188 38.875 -15.523438 38.875 -13.640625 C 38.875 -11.472656 38.457031 -9.507812 37.625 -7.75 C 36.789062 -6 35.601562 -4.492188 34.0625 -3.234375 C 32.53125 -1.984375 30.679688 -1.019531 28.515625 -0.34375 C 26.347656 0.320312 23.929688 0.65625 21.265625 0.65625 Z M 21.265625 0.65625 "/></g></g></g><g fill="#c1ff72" fill-opacity="1"><g transform="translate(649.454856, 442.726635)"><g><path d="M 26.5625 0.65625 C 23.988281 0.65625 21.546875 0.25 19.234375 -0.5625 C 16.929688 -1.375 14.832031 -2.519531 12.9375 -4 C 11.039062 -5.488281 9.398438 -7.253906 8.015625 -9.296875 C 6.628906 -11.347656 5.5625 -13.617188 4.8125 -16.109375 C 4.070312 -18.597656 3.703125 -21.238281 3.703125 -24.03125 C 3.703125 -26.820312 4.070312 -29.460938 4.8125 -31.953125 C 5.5625 -34.441406 6.628906 -36.707031 8.015625 -38.75 C 9.398438 -40.800781 11.039062 -42.566406 12.9375 -44.046875 C 14.832031 -45.535156 16.929688 -46.6875 19.234375 -47.5 C 21.546875 -48.3125 23.988281 -48.71875 26.5625 -48.71875 C 29.144531 -48.71875 31.585938 -48.3125 33.890625 -47.5 C 36.191406 -46.6875 38.296875 -45.535156 40.203125 -44.046875 C 42.109375 -42.566406 43.753906 -40.800781 45.140625 -38.75 C 46.523438 -36.707031 47.597656 -34.441406 48.359375 -31.953125 C 49.117188 -29.460938 49.5 -26.820312 49.5 -24.03125 C 49.5 -21.238281 49.117188 -18.597656 48.359375 -16.109375 C 47.597656 -13.617188 46.523438 -11.347656 45.140625 -9.296875 C 43.753906 -7.253906 42.109375 -5.488281 40.203125 -4 C 38.296875 -2.519531 36.191406 -1.375 33.890625 -0.5625 C 31.585938 0.25 29.144531 0.65625 26.5625 0.65625 Z M 10.328125 -24.03125 C 10.328125 -20.03125 10.972656 -16.582031 12.265625 -13.6875 C 13.566406 -10.800781 15.429688 -8.578125 17.859375 -7.015625 C 20.285156 -5.453125 23.1875 -4.671875 26.5625 -4.671875 C 29.96875 -4.671875 32.882812 -5.453125 35.3125 -7.015625 C 37.75 -8.578125 39.617188 -10.800781 40.921875 -13.6875 C 42.222656 -16.582031 42.875 -20.03125 42.875 -24.03125 C 42.875 -28.039062 42.222656 -31.488281 40.921875 -34.375 C 39.617188 -37.269531 37.75 -39.492188 35.3125 -41.046875 C 32.882812 -42.609375 29.96875 -43.390625 26.5625 -43.390625 C 23.1875 -43.390625 20.285156 -42.609375 17.859375 -41.046875 C 15.429688 -39.492188 13.566406 -37.269531 12.265625 -34.375 C 10.972656 -31.488281 10.328125 -28.039062 10.328125 -24.03125 Z M 10.328125 -24.03125 "/></g></g></g><g fill="#c1ff72" fill-opacity="1"><g transform="translate(702.650307, 442.726635)"><g><path d="M 12.015625 -48.0625 L 12.015625 -5.453125 L 38.328125 -5.453125 L 38.328125 0 L 6.171875 0 L 6.171875 -48.0625 Z M 12.015625 -48.0625 "/></g></g></g><g fill="#c1ff72" fill-opacity="1"><g transform="translate(743.439985, 442.726635)"><g><path d="M 19.8125 0 L 1.171875 -48.0625 L 7.671875 -48.0625 L 22.40625 -9.0625 L 37.15625 -48.0625 L 43.328125 -48.0625 L 24.6875 0 Z M 19.8125 0 "/></g></g></g><g fill="#c1ff72" fill-opacity="1"><g transform="translate(787.931893, 442.726635)"><g><path d="M 6.171875 0 L 6.171875 -48.0625 L 12.015625 -48.0625 L 12.015625 0 Z M 6.171875 0 "/></g></g></g><g fill="#c1ff72" fill-opacity="1"><g transform="translate(806.118369, 442.726635)"><g><path d="M 6.171875 0 L 6.171875 -48.0625 L 15.328125 -48.0625 L 28.78125 -9.578125 L 42.28125 -48.0625 L 51.1875 -48.0625 L 51.1875 0 L 45.34375 0 L 45.34375 -40.40625 L 31.109375 0 L 26.234375 0 L 12.015625 -40.40625 L 12.015625 0 Z M 6.171875 0 "/></g></g></g><g fill="#c1ff72" fill-opacity="1"><g transform="translate(863.470729, 442.726635)"><g><path d="M 1.171875 0 L 19.8125 -48.0625 L 24.6875 -48.0625 L 43.328125 0 L 36.828125 0 L 32.21875 -12.21875 L 11.953125 -12.21875 L 7.34375 0 Z M 14.03125 -17.671875 L 30.140625 -17.671875 L 22.078125 -39 Z M 14.03125 -17.671875 "/></g></g></g><g fill="#c1ff72" fill-opacity="1"><g transform="translate(907.962637, 442.726635)"><g><path d="M 20.234375 0 L 20.234375 -42.609375 L 2.46875 -42.609375 L 2.46875 -48.0625 L 43.84375 -48.0625 L 43.84375 -42.609375 L 26.078125 -42.609375 L 26.078125 0 Z M 20.234375 0 "/></g></g></g><g fill="#c1ff72" fill-opacity="1"><g transform="translate(954.273202, 442.726635)"><g><path d="M 6.171875 0 L 6.171875 -48.0625 L 40.265625 -48.0625 L 40.265625 -42.609375 L 12.015625 -42.609375 L 12.015625 -27.46875 L 33.78125 -27.46875 L 33.78125 -22.015625 L 12.015625 -22.015625 L 12.015625 -5.453125 L 40.265625 -5.453125 L 40.265625 0 Z M 6.171875 0 "/></g></g></g></svg>